<mxfile><diagram name="ER Models"><mxGraphModel><mxCell id="1" value="Person" style="shape=rectangle;whiteSpace=wrap;" vertex="1" parent="1"><mxGeometry x="100" y="100" width="120" height="60" as="geometry" /></mxCell><mxCell id="2" value="Company" style="shape=rectangle;whiteSpace=wrap;" vertex="1" parent="1"><mxGeometry x="300" y="100" width="120" height="60" as="geometry" /></mxCell><mxCell id="3" value="works for" style="edgeStyle=orthogonalEdgeStyle;" edge="1" parent="1" source="1" target="2"><mxGeometry relative="1" as="geometry" /></mxCell><mxCell id="4" value="Order" style="shape=rectangle;whiteSpace=wrap;" vertex="1" parent="1"><mxGeometry x="100" y="300" width="120" height="60" as="geometry" /></mxCell><mxCell id="5" value="Product" style="shape=rectangle;whiteSpace=wrap;" vertex="1" parent="1"><mxGeometry x="300" y="300" width="120" height="60" as="geometry" /></mxCell><mxCell id="6" value="contains" style="edgeStyle=orthogonalEdgeStyle;" edge="1" parent="1" source="4" target="5"><mxGeometry relative="1" as="geometry" /></mxCell><mxCell id="7" value="Employee" style="shape=rectangle;whiteSpace=wrap;" vertex="1" parent="1"><mxGeometry x="100" y="500" width="120" height="60" as="geometry" /></mxCell><mxCell id="8" value="supervises" style="edgeStyle=orthogonalEdgeStyle;" edge="1" parent="1" source="7" target="7"><mxGeometry relative="1" as="geometry" /></mxCell></mxGraphModel></diagram></mxfile>